<?xml version="1.0" encoding="UTF-8"?>
<svg id="Layer_1" xmlns="http://www.w3.org/2000/svg" width="72" height="78.5" version="1.1" viewBox="0 0 72 78.5">
  <!-- Generator: Adobe Illustrator 30.6.0, SVG Export Plug-In . SVG Version: 2.1.4 Build 109)  -->
  <defs>
    <style>
      .st0 {
        fill: #fff;
      }

      .st1 {
        fill: #0c3b60;
      }

      .st2 {
        fill: #00833e;
      }

      .st3 {
        fill: #003764;
      }
    </style>
  </defs>
  <rect class="st3" width="66.2" height="78.5"/>
  <rect class="st0" x="1.7" y="16.2" width="62.9" height="60.1"/>
  <polygon class="st1" points="3 17.8 63.1 17.8 33.1 75.6 3 17.8"/>
  <path class="st2" d="M22.9,17.8h37.2v5.5s-33.6-6.4-32.1,31.9h-5.2V17.8Z"/>
  <path class="st2" d="M72,31.9c0,8.5-6.9,15.3-15.3,15.3s-15.3-6.9-15.3-15.3,6.9-15.3,15.3-15.3,15.3,6.9,15.3,15.3Z"/>
  <g>
    <path class="st2" d="M51.9,39.6l-1,1.9c3.4,1.8,5.4,4.1,5.4,6.6,0,4.2-5.7,7.8-13.8,9.4l-2.8,5.5c11-1.7,19-7.2,19-13.8s-2.6-7.1-6.8-9.7Z"/>
    <path class="st2" d="M23.7,57.7c-8.4-1.6-14.3-5.3-14.3-9.5s2.2-5,5.8-6.8l-1.1-2.1c-4.6,2.6-7.4,6.1-7.4,10,0,6.7,8.4,12.4,19.8,13.9l-2.8-5.5Z"/>
  </g>
  <path class="st2" d="M23.4,57.7s11,1.2,19.4,0l-1.2,5.2-1.8.3s-6.5,1.2-17-.5l.5-4.9Z"/>
  <g>
    <path class="st0" d="M1.6,14.5V6.5S1.3,1.8,6.1,1.9h2.9v3.6h-2.2s-1.2,0-1.1,1.4h3.3v3.3h-3.4v4.3H1.6Z"/>
    <path class="st0" d="M14.5,6.6s.4-1.4,2.9-1.4h1.1V1.9h-2.3s-6.1.4-6.1,6.3,5.6,6.5,5.6,6.5h2.8v-3.6h-1.6s-2.2,0-2.4-1.4h4v-2.9h-4Z"/>
    <path class="st0" d="M20,14.5V1.9h5.1s5.4.6,5.4,6.7-5.9,6-5.9,6v-3.6s1.9,0,1.9-2.8c0-2.9-2.6-2.7-2.6-2.7v9h-3.9Z"/>
    <path class="st0" d="M32.4,1.9h3.9v8.2s0,1,1,1.1.9-1.3.9-1.3V1.9h3.9v9s-.2,3.9-4.8,3.9-4.8-3.8-4.8-3.8V1.9Z"/>
    <path class="st0" d="M52.4,1.9h-3.7s-4-.3-4.1,3.4c0,0-.4,2.2,3,4.1,0,0,1.8,1.4,0,1.5s-3,0-3,0v3.6h3.9s4.3,0,4.5-3.1c0,0,.5-2.8-3.3-4.7,0,0-1.7-1.1-.2-1.3h2.9V1.9Z"/>
    <path class="st0" d="M54.9,14.5V6.1s0-4.3,5-4.4c0,0,4,0,4.7,4.2v8.7h-3.9v-3.8h-1.3v-3.3h1.1v-1.2s.1-.8-.8-.8-.9.8-.9.8v8.4h-4Z"/>
  </g>
</svg>