<?xml version="1.0" encoding="UTF-8"?>
<svg id="Layer_1" xmlns="http://www.w3.org/2000/svg" width="800" height="900" version="1.1" viewBox="0 0 800 900">
  <!-- Generator: Adobe Illustrator 30.6.0, SVG Export Plug-In . SVG Version: 2.1.4 Build 109)  -->
  <defs>
    <style>
      .st0 {
        fill: #e3ebef;
      }

      .st1 {
        fill: #071f4b;
      }

      .st2 {
        opacity: .3;
      }

      .st2, .st3, .st4, .st5, .st6 {
        isolation: isolate;
      }

      .st2, .st6 {
        fill: #33aa49;
      }

      .st4 {
        opacity: .8;
      }

      .st4, .st5 {
        fill: #fff;
      }

      .st5 {
        opacity: .8;
      }

      .st6 {
        opacity: .3;
      }
    </style>
  </defs>
  <rect class="st0" width="800" height="900"/>
  <circle class="st6" cx="400" cy="300" r="145"/>
  <path class="st2" d="M165,900c15-235,95-365,235-365s220,130,235,365"/>
  <circle class="st4" cx="400" cy="298" r="112"/>
  <path class="st5" d="M245,900c12-190,64-285,155-285s143,95,155,285"/>
  <g class="st3">
    <path class="st1" d="M279.9,83.5l3.9-.4c.2,1.3.7,2.3,1.4,2.9s1.7.9,2.9.9,2.3-.3,2.9-.8c.7-.6,1-1.2,1-1.9s-.1-.9-.4-1.2c-.3-.3-.8-.6-1.5-.9-.5-.2-1.6-.5-3.2-.9-2.2-.5-3.7-1.2-4.6-2-1.2-1.1-1.8-2.4-1.8-4s.3-2,.9-2.9c.6-.9,1.4-1.6,2.5-2,1.1-.5,2.4-.7,3.9-.7,2.5,0,4.4.6,5.7,1.7s1.9,2.6,2,4.4l-4,.2c-.2-1-.5-1.8-1.1-2.2-.6-.5-1.4-.7-2.6-.7s-2.1.2-2.8.7c-.4.3-.6.7-.6,1.2s.2.9.6,1.2c.5.4,1.8.9,3.7,1.3s3.4.9,4.4,1.4,1.7,1.2,2.2,2,.8,1.9.8,3.2-.3,2.2-1,3.2c-.6,1-1.5,1.7-2.7,2.2-1.2.5-2.6.7-4.4.7-2.5,0-4.5-.6-5.8-1.8-1.4-1.2-2.2-2.9-2.4-5.1Z"/>
    <path class="st1" d="M299.6,90v-20h6.5c2.5,0,4.1.1,4.8.3,1.1.3,2.1,1,2.9,2,.8,1,1.2,2.3,1.2,3.9s-.2,2.3-.7,3.1c-.4.8-1,1.5-1.7,2-.7.5-1.4.8-2.1,1-1,.2-2.4.3-4.2.3h-2.6v7.6h-4ZM303.7,73.3v5.7h2.2c1.6,0,2.7-.1,3.2-.3.5-.2,1-.5,1.3-1,.3-.4.5-1,.5-1.6s-.2-1.3-.6-1.8c-.4-.5-1-.8-1.6-.9-.5,0-1.5-.1-2.9-.1h-2Z"/>
    <path class="st1" d="M318.3,90v-20h14.9v3.4h-10.8v4.4h10.1v3.4h-10.1v5.5h11.2v3.4h-15.2Z"/>
    <path class="st1" d="M355,90h-4.4l-1.8-4.6h-8l-1.7,4.6h-4.3l7.8-20h4.3l8,20ZM347.6,82.1l-2.8-7.4-2.7,7.4h5.5Z"/>
    <path class="st1" d="M357.2,90v-20h4v8.9l8.2-8.9h5.4l-7.5,7.8,8,12.2h-5.2l-5.5-9.4-3.3,3.3v6.1h-4Z"/>
    <path class="st1" d="M377.4,90v-20h14.9v3.4h-10.8v4.4h10.1v3.4h-10.1v5.5h11.2v3.4h-15.2Z"/>
    <path class="st1" d="M396.1,90v-20h8.5c2.1,0,3.7.2,4.7.5s1.7,1,2.3,1.9.9,2,.9,3.2-.4,2.7-1.3,3.7-2.2,1.6-4,1.9c.9.5,1.6,1.1,2.2,1.7.6.6,1.3,1.7,2.3,3.3l2.4,3.9h-4.8l-2.9-4.4c-1-1.6-1.8-2.5-2.1-2.9s-.8-.7-1.2-.8-1.1-.2-2-.2h-.8v8.4h-4ZM400.1,78.4h3c1.9,0,3.2,0,3.6-.2s.9-.4,1.1-.8.4-.9.4-1.5-.2-1.2-.5-1.6c-.4-.4-.9-.7-1.5-.8-.3,0-1.3,0-3,0h-3.2v5.1Z"/>
    <path class="st1" d="M424.1,90v-20h6.5c2.5,0,4.1.1,4.8.3,1.1.3,2.1,1,2.9,2s1.2,2.3,1.2,3.9-.2,2.3-.7,3.1-1,1.5-1.7,2c-.7.5-1.4.8-2.1,1-1,.2-2.4.3-4.2.3h-2.6v7.6h-4ZM428.1,73.3v5.7h2.2c1.6,0,2.7-.1,3.2-.3s1-.5,1.3-1c.3-.4.5-1,.5-1.6s-.2-1.3-.6-1.8-1-.8-1.6-.9c-.5,0-1.5-.1-2.9-.1h-2Z"/>
    <path class="st1" d="M442.8,90v-20h4v7.9h7.9v-7.9h4v20h-4v-8.8h-7.9v8.8h-4Z"/>
    <path class="st1" d="M462.2,80.1c0-2,.3-3.8.9-5.1.5-1,1.1-1.9,1.9-2.7.8-.8,1.7-1.4,2.6-1.8,1.2-.5,2.7-.8,4.3-.8,3,0,5.3.9,7.1,2.7,1.8,1.8,2.7,4.4,2.7,7.6s-.9,5.8-2.6,7.6-4.1,2.7-7.1,2.7-5.4-.9-7.1-2.7-2.6-4.3-2.6-7.5ZM466.3,80c0,2.3.5,4,1.6,5.2s2.4,1.8,4,1.8,2.9-.6,4-1.7c1-1.2,1.6-2.9,1.6-5.2s-.5-4-1.5-5.1c-1-1.1-2.3-1.7-4-1.7s-3,.6-4,1.7-1.5,2.9-1.5,5.2Z"/>
    <path class="st1" d="M489.3,90v-16.7h-5.9v-3.4h15.9v3.4h-5.9v16.7h-4Z"/>
    <path class="st1" d="M500.5,80.1c0-2,.3-3.8.9-5.1.5-1,1.1-1.9,1.9-2.7.8-.8,1.7-1.4,2.6-1.8,1.2-.5,2.7-.8,4.3-.8,3,0,5.3.9,7.1,2.7,1.8,1.8,2.7,4.4,2.7,7.6s-.9,5.8-2.6,7.6-4.1,2.7-7.1,2.7-5.4-.9-7.1-2.7-2.6-4.3-2.6-7.5ZM504.7,80c0,2.3.5,4,1.6,5.2s2.4,1.8,4,1.8,2.9-.6,4-1.7c1-1.2,1.6-2.9,1.6-5.2s-.5-4-1.5-5.1c-1-1.1-2.3-1.7-4-1.7s-3,.6-4,1.7-1.5,2.9-1.5,5.2Z"/>
  </g>
</svg>